<svg width="48" height="46" viewBox="0 0 48 46" fill="none" xmlns="http://www.w3.org/2000/svg">
<g clip-path="url(#clip0_2003_74)">
<path d="M40.634 7.96493C37.5747 6.61966 34.294 5.62852 30.8638 5.06085C30.8013 5.0499 30.7389 5.07728 30.7067 5.13204C30.2848 5.8512 29.8175 6.7894 29.4902 7.52683C25.8008 6.9975 22.1304 6.9975 18.5166 7.52683C18.1893 6.77301 17.705 5.8512 17.2811 5.13204C17.249 5.0791 17.1866 5.05172 17.1241 5.06085C13.6958 5.6267 10.4151 6.61784 7.35387 7.96493C7.32737 7.97588 7.30465 7.99415 7.28958 8.01786C1.06678 16.9272 -0.637901 25.6176 0.19836 34.2002C0.202144 34.2422 0.22674 34.2824 0.260796 34.3079C4.36642 37.1973 8.34341 38.9515 12.2466 40.1142C12.309 40.1325 12.3752 40.1106 12.415 40.0613C13.3383 38.853 14.1613 37.5789 14.867 36.2391C14.9086 36.1606 14.8688 36.0675 14.7837 36.0365C13.4783 35.5619 12.2352 34.9833 11.0395 34.3262C10.9449 34.2732 10.9373 34.1436 11.0243 34.0815C11.2759 33.9008 11.5276 33.7128 11.7679 33.523C11.8114 33.4883 11.872 33.481 11.9231 33.5029C19.7786 36.94 28.2831 36.94 36.0459 33.5029C36.097 33.4792 36.1576 33.4865 36.203 33.5212C36.4433 33.711 36.6949 33.9008 36.9484 34.0815C37.0354 34.1436 37.0298 34.2732 36.9352 34.3262C35.7394 34.996 34.4964 35.5619 33.189 36.0347C33.1039 36.0657 33.0661 36.1606 33.1077 36.2391C33.8285 37.577 34.6515 38.8511 35.5578 40.0595C35.5957 40.1106 35.6637 40.1325 35.7262 40.1142C39.6483 38.9515 43.6252 37.1973 47.7309 34.3079C47.7668 34.2824 47.7895 34.244 47.7933 34.202C48.7942 24.2796 46.117 15.6605 40.6964 8.01968C40.6832 7.99415 40.6605 7.97588 40.634 7.96493ZM16.04 28.9743C13.675 28.9743 11.7263 26.8935 11.7263 24.338C11.7263 21.7826 13.6372 19.7017 16.04 19.7017C18.4617 19.7017 20.3916 21.8008 20.3538 24.338C20.3538 26.8935 18.4428 28.9743 16.04 28.9743ZM31.9895 28.9743C29.6245 28.9743 27.6758 26.8935 27.6758 24.338C27.6758 21.7826 29.5867 19.7017 31.9895 19.7017C34.4113 19.7017 36.3411 21.8008 36.3033 24.338C36.3033 26.8935 34.4113 28.9743 31.9895 28.9743Z" fill="#8A7AEE"/>
</g>
<defs>
<clipPath id="clip0_2003_74">
<rect width="48" height="46" fill="white"/>
</clipPath>
</defs>
</svg>
