<svg width="48" height="46" viewBox="0 0 48 46" fill="none" xmlns="http://www.w3.org/2000/svg">
<g clip-path="url(#clip0_2003_72)">
<path d="M0 22.08C0 11.6714 0 6.46708 3.37413 3.23354C6.74826 0 12.1788 0 23.04 0H24.96C35.8212 0 41.2517 0 44.6259 3.23354C48 6.46708 48 11.6714 48 22.08V23.92C48 34.3286 48 39.5329 44.6259 42.7665C41.2517 46 35.8212 46 24.96 46H23.04C12.1788 46 6.74826 46 3.37413 42.7665C0 39.5329 0 34.3286 0 23.92V22.08Z" fill="#8A7AEE"/>
<path d="M25.54 33.1393C14.6 33.1393 8.3601 25.9518 8.1001 13.9918H13.5801C13.7601 22.7702 17.8 26.4885 21 27.2552V13.9918H26.1602V21.5627C29.3202 21.2368 32.6398 17.7868 33.7598 13.9918H38.9199C38.0599 18.6685 34.4599 22.1185 31.8999 23.5368C34.4599 24.6868 38.5601 27.696 40.1201 33.1393H34.4399C33.2199 29.4977 30.1802 26.6802 26.1602 26.2968V33.1393H25.54Z" fill="white"/>
</g>
<defs>
<clipPath id="clip0_2003_72">
<rect width="48" height="46" fill="white"/>
</clipPath>
</defs>
</svg>
