<svg width="48" height="46" viewBox="0 0 48 46" fill="none" xmlns="http://www.w3.org/2000/svg">
<g clip-path="url(#clip0_2003_73)">
<path d="M24 46C37.2548 46 48 35.7025 48 23C48 10.2975 37.2548 0 24 0C10.7452 0 0 10.2975 0 23C0 35.7025 10.7452 46 24 46Z" fill="#8A7AEE"/>
<path fill-rule="evenodd" clip-rule="evenodd" d="M10.8638 22.7571C17.8603 19.8359 22.5257 17.91 24.8601 16.9796C31.5251 14.3228 32.91 13.8613 33.8127 13.8461C34.0113 13.8428 34.4552 13.8899 34.7427 14.1135C34.9855 14.3023 35.0523 14.5574 35.0843 14.7364C35.1163 14.9154 35.1561 15.3232 35.1244 15.6418C34.7633 19.2787 33.2004 28.1043 32.4053 32.1776C32.0689 33.9012 31.4065 34.4791 30.7652 34.5357C29.3714 34.6586 28.3131 33.653 26.9632 32.805C24.8509 31.478 23.6576 30.652 21.6072 29.3571C19.2377 27.8607 20.7738 27.0382 22.1242 25.6941C22.4776 25.3423 28.6183 19.9895 28.7372 19.504C28.7521 19.4432 28.7659 19.2169 28.6255 19.0973C28.4852 18.9778 28.2781 19.0187 28.1286 19.0512C27.9168 19.0973 24.5423 21.2347 18.0053 25.4635C17.0475 26.0938 16.1799 26.4009 15.4026 26.3848C14.5457 26.3671 12.8973 25.9205 11.6719 25.5388C10.1689 25.0706 8.97432 24.823 9.07834 24.0279C9.13252 23.6137 9.72767 23.1901 10.8638 22.7571Z" fill="white"/>
</g>
<defs>
<clipPath id="clip0_2003_73">
<rect width="48" height="46" fill="white"/>
</clipPath>
</defs>
</svg>
